<mxfile host="Electron" agent="Mozilla/5.0 (Windows NT 10.0; Win64; x64) AppleWebKit/537.36 (KHTML, like Gecko) draw.io/28.1.2 Chrome/138.0.7204.243 Electron/37.4.0 Safari/537.36" version="28.1.2">
  <diagram name="Page-1" id="ls1uqnBOFxIxItO8KcNr">
    <mxGraphModel dx="1924" dy="659" grid="1" gridSize="10" guides="1" tooltips="1" connect="1" arrows="1" fold="1" page="1" pageScale="1" pageWidth="827" pageHeight="1169" math="0" shadow="0">
      <root>
        <mxCell id="0" />
        <mxCell id="1" parent="0" />
        <mxCell id="8ysRGAQMTSw2XDLil-Mq-1" value="" style="rounded=0;whiteSpace=wrap;html=1;fillColor=none;dashed=1;" parent="1" vertex="1">
          <mxGeometry x="-80" y="120" width="160" height="400" as="geometry" />
        </mxCell>
        <mxCell id="8ysRGAQMTSw2XDLil-Mq-3" value="&lt;font style=&quot;font-size: 25px;&quot;&gt;&lt;b&gt;Data Flow Diagram&lt;/b&gt;&lt;/font&gt;" style="text;html=1;align=center;verticalAlign=middle;resizable=0;points=[];autosize=1;strokeColor=none;fillColor=none;" parent="1" vertex="1">
          <mxGeometry x="-80" width="250" height="40" as="geometry" />
        </mxCell>
        <mxCell id="8ysRGAQMTSw2XDLil-Mq-4" value="&lt;font style=&quot;font-size: 20px;&quot;&gt;Sources&lt;/font&gt;" style="rounded=1;whiteSpace=wrap;html=1;strokeColor=none;" parent="1" vertex="1">
          <mxGeometry x="-60" y="100" width="120" height="40" as="geometry" />
        </mxCell>
        <mxCell id="8ysRGAQMTSw2XDLil-Mq-16" style="edgeStyle=orthogonalEdgeStyle;rounded=0;orthogonalLoop=1;jettySize=auto;html=1;" parent="1" source="8ysRGAQMTSw2XDLil-Mq-5" target="8ysRGAQMTSw2XDLil-Mq-11" edge="1">
          <mxGeometry relative="1" as="geometry" />
        </mxCell>
        <mxCell id="8ysRGAQMTSw2XDLil-Mq-17" style="edgeStyle=orthogonalEdgeStyle;rounded=0;orthogonalLoop=1;jettySize=auto;html=1;entryX=0;entryY=0.75;entryDx=0;entryDy=0;" parent="1" source="8ysRGAQMTSw2XDLil-Mq-5" target="8ysRGAQMTSw2XDLil-Mq-10" edge="1">
          <mxGeometry relative="1" as="geometry" />
        </mxCell>
        <mxCell id="8ysRGAQMTSw2XDLil-Mq-18" style="edgeStyle=orthogonalEdgeStyle;rounded=0;orthogonalLoop=1;jettySize=auto;html=1;entryX=0;entryY=0.5;entryDx=0;entryDy=0;" parent="1" source="8ysRGAQMTSw2XDLil-Mq-5" target="8ysRGAQMTSw2XDLil-Mq-12" edge="1">
          <mxGeometry relative="1" as="geometry" />
        </mxCell>
        <mxCell id="8ysRGAQMTSw2XDLil-Mq-5" value="CRM" style="image;aspect=fixed;html=1;points=[];align=center;fontSize=12;image=img/lib/azure2/general/Folder_Blank.svg;" parent="1" vertex="1">
          <mxGeometry x="-40" y="200" width="50" height="40.58" as="geometry" />
        </mxCell>
        <mxCell id="8ysRGAQMTSw2XDLil-Mq-19" style="edgeStyle=orthogonalEdgeStyle;rounded=0;orthogonalLoop=1;jettySize=auto;html=1;entryX=0;entryY=0.5;entryDx=0;entryDy=0;" parent="1" source="8ysRGAQMTSw2XDLil-Mq-6" target="8ysRGAQMTSw2XDLil-Mq-14" edge="1">
          <mxGeometry relative="1" as="geometry" />
        </mxCell>
        <mxCell id="8ysRGAQMTSw2XDLil-Mq-20" style="edgeStyle=orthogonalEdgeStyle;rounded=0;orthogonalLoop=1;jettySize=auto;html=1;entryX=0;entryY=0.5;entryDx=0;entryDy=0;" parent="1" source="8ysRGAQMTSw2XDLil-Mq-6" target="8ysRGAQMTSw2XDLil-Mq-13" edge="1">
          <mxGeometry relative="1" as="geometry" />
        </mxCell>
        <mxCell id="8ysRGAQMTSw2XDLil-Mq-21" style="edgeStyle=orthogonalEdgeStyle;rounded=0;orthogonalLoop=1;jettySize=auto;html=1;entryX=0;entryY=0.5;entryDx=0;entryDy=0;" parent="1" source="8ysRGAQMTSw2XDLil-Mq-6" target="8ysRGAQMTSw2XDLil-Mq-15" edge="1">
          <mxGeometry relative="1" as="geometry" />
        </mxCell>
        <mxCell id="8ysRGAQMTSw2XDLil-Mq-6" value="ERP" style="image;aspect=fixed;html=1;points=[];align=center;fontSize=12;image=img/lib/azure2/general/Folder_Blank.svg;" parent="1" vertex="1">
          <mxGeometry x="-40" y="360" width="50" height="40.58" as="geometry" />
        </mxCell>
        <mxCell id="8ysRGAQMTSw2XDLil-Mq-8" value="" style="rounded=1;whiteSpace=wrap;html=1;fillColor=none;strokeColor=#d79b00;" parent="1" vertex="1">
          <mxGeometry x="120" y="120" width="200" height="400" as="geometry" />
        </mxCell>
        <mxCell id="8ysRGAQMTSw2XDLil-Mq-9" value="&lt;b&gt;&lt;font style=&quot;font-size: 16px;&quot;&gt;Bronze Layer&lt;/font&gt;&lt;/b&gt;" style="rounded=1;whiteSpace=wrap;html=1;fillColor=#ffe6cc;strokeColor=#d79b00;" parent="1" vertex="1">
          <mxGeometry x="120" y="80" width="200" height="30" as="geometry" />
        </mxCell>
        <mxCell id="oyw2Bi52QRhpBYn-IV9K-9" style="edgeStyle=orthogonalEdgeStyle;rounded=0;orthogonalLoop=1;jettySize=auto;html=1;exitX=1;exitY=0.5;exitDx=0;exitDy=0;entryX=0;entryY=0.5;entryDx=0;entryDy=0;" parent="1" source="8ysRGAQMTSw2XDLil-Mq-10" target="oyw2Bi52QRhpBYn-IV9K-3" edge="1">
          <mxGeometry relative="1" as="geometry" />
        </mxCell>
        <mxCell id="8ysRGAQMTSw2XDLil-Mq-10" value="crm_sales_details" style="rounded=1;whiteSpace=wrap;html=1;fillColor=#ffe6cc;strokeColor=#d79b00;" parent="1" vertex="1">
          <mxGeometry x="130" y="170" width="180" height="30" as="geometry" />
        </mxCell>
        <mxCell id="oyw2Bi52QRhpBYn-IV9K-10" style="edgeStyle=orthogonalEdgeStyle;rounded=0;orthogonalLoop=1;jettySize=auto;html=1;exitX=1;exitY=0.5;exitDx=0;exitDy=0;entryX=0;entryY=0.5;entryDx=0;entryDy=0;" parent="1" source="8ysRGAQMTSw2XDLil-Mq-11" target="oyw2Bi52QRhpBYn-IV9K-4" edge="1">
          <mxGeometry relative="1" as="geometry" />
        </mxCell>
        <mxCell id="8ysRGAQMTSw2XDLil-Mq-11" value="crm_cust_info" style="rounded=1;whiteSpace=wrap;html=1;fillColor=#ffe6cc;strokeColor=#d79b00;" parent="1" vertex="1">
          <mxGeometry x="130" y="210" width="180" height="30" as="geometry" />
        </mxCell>
        <mxCell id="oyw2Bi52QRhpBYn-IV9K-11" style="edgeStyle=orthogonalEdgeStyle;rounded=0;orthogonalLoop=1;jettySize=auto;html=1;exitX=1;exitY=0.5;exitDx=0;exitDy=0;" parent="1" source="8ysRGAQMTSw2XDLil-Mq-12" target="oyw2Bi52QRhpBYn-IV9K-5" edge="1">
          <mxGeometry relative="1" as="geometry" />
        </mxCell>
        <mxCell id="8ysRGAQMTSw2XDLil-Mq-12" value="crm_prd_info" style="rounded=1;whiteSpace=wrap;html=1;fillColor=#ffe6cc;strokeColor=#d79b00;" parent="1" vertex="1">
          <mxGeometry x="130" y="250" width="180" height="30" as="geometry" />
        </mxCell>
        <mxCell id="oyw2Bi52QRhpBYn-IV9K-12" style="edgeStyle=orthogonalEdgeStyle;rounded=0;orthogonalLoop=1;jettySize=auto;html=1;exitX=1;exitY=0.5;exitDx=0;exitDy=0;entryX=0;entryY=0.5;entryDx=0;entryDy=0;" parent="1" source="8ysRGAQMTSw2XDLil-Mq-13" target="oyw2Bi52QRhpBYn-IV9K-6" edge="1">
          <mxGeometry relative="1" as="geometry" />
        </mxCell>
        <mxCell id="8ysRGAQMTSw2XDLil-Mq-13" value="erp_cust_az12" style="rounded=1;whiteSpace=wrap;html=1;fillColor=#ffe6cc;strokeColor=#d79b00;" parent="1" vertex="1">
          <mxGeometry x="130" y="330" width="180" height="30" as="geometry" />
        </mxCell>
        <mxCell id="oyw2Bi52QRhpBYn-IV9K-13" style="edgeStyle=orthogonalEdgeStyle;rounded=0;orthogonalLoop=1;jettySize=auto;html=1;exitX=1;exitY=0.5;exitDx=0;exitDy=0;entryX=0;entryY=0.5;entryDx=0;entryDy=0;" parent="1" source="8ysRGAQMTSw2XDLil-Mq-14" target="oyw2Bi52QRhpBYn-IV9K-7" edge="1">
          <mxGeometry relative="1" as="geometry" />
        </mxCell>
        <mxCell id="8ysRGAQMTSw2XDLil-Mq-14" value="erp_loc_a101" style="rounded=1;whiteSpace=wrap;html=1;fillColor=#ffe6cc;strokeColor=#d79b00;" parent="1" vertex="1">
          <mxGeometry x="130" y="370" width="180" height="30" as="geometry" />
        </mxCell>
        <mxCell id="oyw2Bi52QRhpBYn-IV9K-14" style="edgeStyle=orthogonalEdgeStyle;rounded=0;orthogonalLoop=1;jettySize=auto;html=1;exitX=1;exitY=0.5;exitDx=0;exitDy=0;entryX=0;entryY=0.5;entryDx=0;entryDy=0;" parent="1" source="8ysRGAQMTSw2XDLil-Mq-15" target="oyw2Bi52QRhpBYn-IV9K-8" edge="1">
          <mxGeometry relative="1" as="geometry" />
        </mxCell>
        <mxCell id="8ysRGAQMTSw2XDLil-Mq-15" value="erp_px_cat_g1v2" style="rounded=1;whiteSpace=wrap;html=1;fillColor=#ffe6cc;strokeColor=#d79b00;" parent="1" vertex="1">
          <mxGeometry x="130" y="410" width="180" height="30" as="geometry" />
        </mxCell>
        <mxCell id="oyw2Bi52QRhpBYn-IV9K-1" value="" style="rounded=1;whiteSpace=wrap;html=1;fillColor=none;strokeColor=#666666;fontColor=#333333;" parent="1" vertex="1">
          <mxGeometry x="400" y="120" width="200" height="400" as="geometry" />
        </mxCell>
        <mxCell id="oyw2Bi52QRhpBYn-IV9K-2" value="&lt;b&gt;&lt;font style=&quot;font-size: 16px;&quot;&gt;Silver Layer&lt;/font&gt;&lt;/b&gt;" style="rounded=1;whiteSpace=wrap;html=1;fillColor=#f5f5f5;strokeColor=#666666;fontColor=#333333;" parent="1" vertex="1">
          <mxGeometry x="400" y="80" width="200" height="30" as="geometry" />
        </mxCell>
        <mxCell id="oyw2Bi52QRhpBYn-IV9K-3" value="crm_sales_details" style="rounded=1;whiteSpace=wrap;html=1;fillColor=#f5f5f5;strokeColor=#666666;fontColor=#333333;" parent="1" vertex="1">
          <mxGeometry x="410" y="170" width="180" height="30" as="geometry" />
        </mxCell>
        <mxCell id="oyw2Bi52QRhpBYn-IV9K-4" value="crm_cust_info" style="rounded=1;whiteSpace=wrap;html=1;fillColor=#f5f5f5;strokeColor=#666666;fontColor=#333333;" parent="1" vertex="1">
          <mxGeometry x="410" y="210" width="180" height="30" as="geometry" />
        </mxCell>
        <mxCell id="oyw2Bi52QRhpBYn-IV9K-5" value="crm_prd_info" style="rounded=1;whiteSpace=wrap;html=1;fillColor=#f5f5f5;strokeColor=#666666;fontColor=#333333;" parent="1" vertex="1">
          <mxGeometry x="410" y="250" width="180" height="30" as="geometry" />
        </mxCell>
        <mxCell id="oyw2Bi52QRhpBYn-IV9K-6" value="erp_cust_az12" style="rounded=1;whiteSpace=wrap;html=1;fillColor=#f5f5f5;strokeColor=#666666;fontColor=#333333;" parent="1" vertex="1">
          <mxGeometry x="410" y="330" width="180" height="30" as="geometry" />
        </mxCell>
        <mxCell id="oyw2Bi52QRhpBYn-IV9K-7" value="erp_loc_a101" style="rounded=1;whiteSpace=wrap;html=1;fillColor=#f5f5f5;strokeColor=#666666;fontColor=#333333;" parent="1" vertex="1">
          <mxGeometry x="410" y="370" width="180" height="30" as="geometry" />
        </mxCell>
        <mxCell id="oyw2Bi52QRhpBYn-IV9K-8" value="erp_px_cat_g1v2" style="rounded=1;whiteSpace=wrap;html=1;fillColor=#f5f5f5;strokeColor=#666666;fontColor=#333333;" parent="1" vertex="1">
          <mxGeometry x="410" y="410" width="180" height="30" as="geometry" />
        </mxCell>
        <mxCell id="lA3WyRoojv9Z0w-lfKgt-1" value="" style="rounded=1;whiteSpace=wrap;html=1;fillColor=none;strokeColor=#d6b656;" vertex="1" parent="1">
          <mxGeometry x="680" y="120" width="200" height="400" as="geometry" />
        </mxCell>
        <mxCell id="lA3WyRoojv9Z0w-lfKgt-2" value="&lt;b&gt;&lt;font style=&quot;font-size: 16px;&quot;&gt;Silver Layer&lt;/font&gt;&lt;/b&gt;" style="rounded=1;whiteSpace=wrap;html=1;fillColor=none;strokeColor=#d6b656;" vertex="1" parent="1">
          <mxGeometry x="680" y="80" width="200" height="30" as="geometry" />
        </mxCell>
        <mxCell id="lA3WyRoojv9Z0w-lfKgt-3" value="fact_sales" style="rounded=1;whiteSpace=wrap;html=1;fillColor=#fff2cc;strokeColor=#d6b656;" vertex="1" parent="1">
          <mxGeometry x="690" y="170" width="180" height="30" as="geometry" />
        </mxCell>
        <mxCell id="lA3WyRoojv9Z0w-lfKgt-4" value="dim_customers" style="rounded=1;whiteSpace=wrap;html=1;fillColor=#fff2cc;strokeColor=#d6b656;" vertex="1" parent="1">
          <mxGeometry x="690" y="290" width="180" height="30" as="geometry" />
        </mxCell>
        <mxCell id="lA3WyRoojv9Z0w-lfKgt-5" value="dim_products" style="rounded=1;whiteSpace=wrap;html=1;fillColor=#fff2cc;strokeColor=#d6b656;" vertex="1" parent="1">
          <mxGeometry x="690" y="370" width="180" height="30" as="geometry" />
        </mxCell>
        <mxCell id="lA3WyRoojv9Z0w-lfKgt-9" value="" style="endArrow=classic;html=1;rounded=0;exitX=1;exitY=0.5;exitDx=0;exitDy=0;" edge="1" parent="1" source="oyw2Bi52QRhpBYn-IV9K-3" target="lA3WyRoojv9Z0w-lfKgt-3">
          <mxGeometry width="50" height="50" relative="1" as="geometry">
            <mxPoint x="590" y="180" as="sourcePoint" />
            <mxPoint x="640" y="130" as="targetPoint" />
          </mxGeometry>
        </mxCell>
        <mxCell id="lA3WyRoojv9Z0w-lfKgt-10" value="" style="endArrow=classic;html=1;rounded=0;exitX=1;exitY=0.5;exitDx=0;exitDy=0;entryX=0;entryY=0;entryDx=0;entryDy=0;jumpStyle=gap;" edge="1" parent="1" target="lA3WyRoojv9Z0w-lfKgt-4">
          <mxGeometry width="50" height="50" relative="1" as="geometry">
            <mxPoint x="590" y="224.47" as="sourcePoint" />
            <mxPoint x="690" y="224.47" as="targetPoint" />
          </mxGeometry>
        </mxCell>
        <mxCell id="lA3WyRoojv9Z0w-lfKgt-11" value="" style="endArrow=classic;html=1;rounded=0;exitX=1;exitY=0.5;exitDx=0;exitDy=0;entryX=0;entryY=0;entryDx=0;entryDy=0;jumpStyle=gap;" edge="1" parent="1" target="lA3WyRoojv9Z0w-lfKgt-5">
          <mxGeometry width="50" height="50" relative="1" as="geometry">
            <mxPoint x="590" y="264.47" as="sourcePoint" />
            <mxPoint x="690" y="330" as="targetPoint" />
          </mxGeometry>
        </mxCell>
        <mxCell id="lA3WyRoojv9Z0w-lfKgt-12" value="" style="endArrow=classic;html=1;rounded=0;exitX=1;exitY=0.5;exitDx=0;exitDy=0;entryX=0;entryY=0.5;entryDx=0;entryDy=0;jumpStyle=gap;" edge="1" parent="1" target="lA3WyRoojv9Z0w-lfKgt-4">
          <mxGeometry width="50" height="50" relative="1" as="geometry">
            <mxPoint x="590" y="340" as="sourcePoint" />
            <mxPoint x="690" y="445.53" as="targetPoint" />
          </mxGeometry>
        </mxCell>
        <mxCell id="lA3WyRoojv9Z0w-lfKgt-13" value="" style="endArrow=classic;html=1;rounded=0;exitX=1;exitY=0.5;exitDx=0;exitDy=0;entryX=0;entryY=1;entryDx=0;entryDy=0;jumpStyle=gap;" edge="1" parent="1" target="lA3WyRoojv9Z0w-lfKgt-4">
          <mxGeometry width="50" height="50" relative="1" as="geometry">
            <mxPoint x="590" y="385" as="sourcePoint" />
            <mxPoint x="690" y="350" as="targetPoint" />
          </mxGeometry>
        </mxCell>
        <mxCell id="lA3WyRoojv9Z0w-lfKgt-14" value="" style="endArrow=classic;html=1;rounded=0;exitX=1;exitY=0.5;exitDx=0;exitDy=0;entryX=0;entryY=0.5;entryDx=0;entryDy=0;jumpStyle=gap;" edge="1" parent="1" target="lA3WyRoojv9Z0w-lfKgt-5">
          <mxGeometry width="50" height="50" relative="1" as="geometry">
            <mxPoint x="590" y="425" as="sourcePoint" />
            <mxPoint x="690" y="360" as="targetPoint" />
          </mxGeometry>
        </mxCell>
      </root>
    </mxGraphModel>
  </diagram>
</mxfile>
